<svg viewBox="0 0 41 40" fill="none" xmlns="http://www.w3.org/2000/svg">
<g clipPath="url(#clip0_1740_5631)">
<path d="M29.3409 13.6539C29.9513 14.2642 29.9513 15.2536 29.3409 15.8636L18.8588 26.3461C18.2484 26.9562 17.2593 26.9562 16.649 26.3461L11.6591 21.3559C11.0487 20.7458 11.0487 19.7565 11.6591 19.1464C12.2691 18.5361 13.2585 18.5361 13.8685 19.1464L17.7537 23.0316L27.1312 13.6539C27.7415 13.0438 28.7309 13.0438 29.3409 13.6539V13.6539ZM40.5 20C40.5 31.055 31.5535 40 20.5 40C9.44501 40 0.5 31.0535 0.5 20C0.5 8.94501 9.44653 0 20.5 0C31.555 0 40.5 8.94653 40.5 20ZM37.375 20C37.375 10.6723 29.8265 3.125 20.5 3.125C11.1723 3.125 3.625 10.6735 3.625 20C3.625 29.3277 11.1735 36.875 20.5 36.875C29.8277 36.875 37.375 29.3265 37.375 20Z" fill="#7984C0"/>
</g>
<defs>
<clipPath id="clip0_1740_5631">
<rect width="40" height="40" fill="white" transform="translate(0.5)"/>
</clipPath>
</defs>
</svg>
