<svg viewBox="0 0 41 40" fill="none" xmlns="http://www.w3.org/2000/svg">
<g clipPath="url(#clip0_1740_5698)">
<path d="M20.5 40C15.1578 40 10.1353 37.9197 6.35781 34.1422C2.58031 30.3647 0.5 25.3422 0.5 20C0.5 14.6578 2.58039 9.63539 6.35781 5.85781C10.1352 2.08023 15.1578 0 20.5 0C25.8422 0 30.8647 2.08031 34.6422 5.85781C38.4197 9.63531 40.5 14.6578 40.5 20C40.5 25.3422 38.4196 30.3646 34.6422 34.1422C30.8648 37.9198 25.8422 40 20.5 40V40ZM20.5 2.5C10.8505 2.5 3 10.3505 3 20C3 29.6495 10.8505 37.5 20.5 37.5C30.1495 37.5 38 29.6495 38 20C38 10.3505 30.1495 2.5 20.5 2.5Z" fill="#7984C0"/>
<path d="M20.5 18.75C18.7769 18.75 17.375 17.3481 17.375 15.625C17.375 13.9019 18.7769 12.5 20.5 12.5C22.2231 12.5 23.625 13.9019 23.625 15.625C23.625 16.3153 24.1846 16.875 24.875 16.875C25.5654 16.875 26.125 16.3153 26.125 15.625C26.125 12.953 24.2517 10.7119 21.75 10.1417V8.75C21.75 8.05969 21.1904 7.5 20.5 7.5C19.8096 7.5 19.25 8.05969 19.25 8.75V10.1417C16.7483 10.7119 14.875 12.953 14.875 15.625C14.875 18.7266 17.3984 21.25 20.5 21.25C22.2231 21.25 23.625 22.6519 23.625 24.375C23.625 26.0981 22.2231 27.5 20.5 27.5C18.7769 27.5 17.375 26.0981 17.375 24.375C17.375 23.6847 16.8154 23.125 16.125 23.125C15.4346 23.125 14.875 23.6847 14.875 24.375C14.875 27.047 16.7483 29.2881 19.25 29.8583V31.25C19.25 31.9403 19.8096 32.5 20.5 32.5C21.1904 32.5 21.75 31.9403 21.75 31.25V29.8583C24.2517 29.2881 26.125 27.047 26.125 24.375C26.125 21.2734 23.6016 18.75 20.5 18.75Z" fill="#7984C0"/>
</g>
<defs>
<clipPath id="clip0_1740_5698">
<rect width="40" height="40" fill="white" transform="translate(0.5)"/>
</clipPath>
</defs>
</svg>
