<svg viewBox="0 0 41 40" fill="none" xmlns="http://www.w3.org/2000/svg">
<path d="M34.3073 8.78651H16.4588C15.9681 7.32909 14.5896 6.27612 12.9688 6.27612C11.348 6.27612 9.9695 7.32909 9.4788 8.78651H6.69278C6.04559 8.78651 5.5209 9.3112 5.5209 9.95839C5.5209 10.6056 6.04559 11.1303 6.69278 11.1303H9.47887C9.96958 12.5877 11.3481 13.6407 12.9689 13.6407C14.5897 13.6407 15.9682 12.5877 16.4589 11.1303H34.3074C34.9546 11.1303 35.4793 10.6056 35.4793 9.95839C35.4793 9.3112 34.9546 8.78651 34.3073 8.78651V8.78651ZM12.9688 11.2969C12.2307 11.2969 11.6303 10.6964 11.6303 9.95839C11.6303 9.22034 12.2307 8.61987 12.9688 8.61987C13.7068 8.61987 14.3073 9.22034 14.3073 9.95839C14.3073 10.6964 13.7068 11.2969 12.9688 11.2969Z" fill="#7984C0"/>
<path d="M34.3073 18.8283H31.5212C31.0305 17.3708 29.6519 16.3179 28.0312 16.3179C26.4105 16.3179 25.032 17.3708 24.5413 18.8283H6.69278C6.04559 18.8283 5.5209 19.3529 5.5209 20.0001C5.5209 20.6473 6.04559 21.172 6.69278 21.172H24.5413C25.032 22.6294 26.4106 23.6824 28.0313 23.6824C29.652 23.6824 31.0306 22.6294 31.5213 21.172H34.3074C34.9546 21.172 35.4793 20.6473 35.4793 20.0001C35.4793 19.3529 34.9546 18.8283 34.3073 18.8283ZM28.0313 21.3387C27.2932 21.3387 26.6928 20.7382 26.6928 20.0001C26.6928 19.2621 27.2932 18.6616 28.0313 18.6616C28.7693 18.6616 29.3698 19.2621 29.3698 20.0001C29.3698 20.7382 28.7693 21.3387 28.0313 21.3387Z" fill="#7984C0"/>
<path d="M34.3073 28.87H21.4797C20.989 27.4126 19.6104 26.3596 17.9897 26.3596C16.3689 26.3596 14.9904 27.4126 14.4997 28.87H6.69278C6.04559 28.87 5.5209 29.3947 5.5209 30.0419C5.5209 30.6891 6.04559 31.2138 6.69278 31.2138H14.4997C14.9904 32.6712 16.3689 33.7242 17.9897 33.7242C19.6104 33.7242 20.989 32.6712 21.4797 31.2138H34.3074C34.9546 31.2138 35.4793 30.6891 35.4793 30.0419C35.4793 29.3947 34.9546 28.87 34.3073 28.87ZM17.9897 31.3805C17.2516 31.3805 16.6511 30.78 16.6511 30.042C16.6511 29.3039 17.2516 28.7034 17.9897 28.7034C18.7277 28.7034 19.3282 29.3038 19.3282 30.0419C19.3282 30.7799 18.7277 31.3805 17.9897 31.3805V31.3805Z" fill="#7984C0"/>
</svg>
