<svg viewBox="0 0 41 40" fill="none" xmlns="http://www.w3.org/2000/svg">
<path d="M37.0342 38.3292L34.6001 11.2227C34.5337 10.4824 33.9133 9.91544 33.1702 9.91544H28.1507V7.6516C28.1507 3.43251 24.7184 0 20.4995 0C16.2808 0 12.8489 3.43251 12.8489 7.6516V9.91544H7.82596C7.08283 9.91544 6.46241 10.4824 6.39598 11.2227L3.9524 38.4358C3.91641 38.8375 4.05079 39.2354 4.32281 39.5329C4.59483 39.8304 4.97941 39.9998 5.38237 39.9998H35.614C35.6151 39.9998 35.6166 39.9998 35.6178 39.9998C36.4109 39.9998 37.0535 39.357 37.0535 38.5641C37.0533 38.4843 37.0468 38.4056 37.0342 38.3292ZM15.7203 7.6516C15.7203 5.01582 17.8643 2.87143 20.4997 2.87143C23.1353 2.87143 25.2795 5.01582 25.2795 7.6516V9.91544H15.7203V7.6516ZM6.95285 37.1286L9.13858 12.7869H12.8489V15.3543C12.8489 16.1472 13.4915 16.79 14.2846 16.79C15.0777 16.79 15.7203 16.1472 15.7203 15.3543V12.7869H25.2795V15.3543C25.2795 16.1472 25.9221 16.79 26.7152 16.79C27.5083 16.79 28.1509 16.1472 28.1509 15.3543V12.7869H31.8577L34.0435 37.1286H6.95285V37.1286Z" fill="#7984C0"/>
</svg>
