<svg width="41" height="40" viewBox="0 0 41 40" fill="none" xmlns="http://www.w3.org/2000/svg">
<g clip-path="url(#clip0_1620_3814)">
<path d="M40.5 20C40.5 20.7572 40.4572 21.5202 40.3727 22.2677C40.2259 23.567 38.6384 24.1202 37.7152 23.1971L33.4133 18.8952C32.803 18.2849 32.803 17.2956 33.4133 16.6855C34.0234 16.0752 35.0128 16.0752 35.623 16.6855L37.2968 18.3593C36.4921 9.96328 29.418 3.125 20.5 3.125C11.1206 3.125 3.625 10.7352 3.625 20C3.625 29.3276 11.1737 36.875 20.5 36.875C26.6836 36.875 32.3652 33.4984 35.3278 28.063C35.7407 27.3052 36.6897 27.0259 37.4475 27.4388C38.2052 27.8517 38.4846 28.8008 38.0716 29.5584C34.5613 35.9991 27.8283 40 20.5 40C9.44508 40 0.5 31.0534 0.5 20C0.5 8.95648 9.45594 0 20.5 0C31.5548 0 40.5 8.94664 40.5 20V20ZM20.5 6.25C19.637 6.25 18.9375 6.94953 18.9375 7.8125V20C18.9375 20.4144 19.1021 20.8119 19.3952 21.1048L25.8585 27.5682C26.4687 28.1784 27.458 28.1784 28.0683 27.5682C28.6784 26.958 28.6784 25.9687 28.0683 25.3585L22.0625 19.3528V7.8125C22.0625 6.94953 21.363 6.25 20.5 6.25Z" fill="#7984C0"/>
</g>
<defs>
<clipPath id="clip0_1620_3814">
<rect width="40" height="40" fill="white" transform="translate(0.5)"/>
</clipPath>
</defs>
</svg>
