<svg width="41" height="40" viewBox="0 0 41 40" fill="none" xmlns="http://www.w3.org/2000/svg">
<g clipPath="url(#clip0_1620_3767)">
<path d="M31.75 14.6875H15.1846V8.26328C15.1846 5.43 17.5678 3.125 20.4971 3.125C23.4264 3.125 25.8096 5.43 25.8096 8.26328V11.25H28.9346V8.26328C28.9346 3.70687 25.1495 0 20.4971 0C15.8447 0 12.0596 3.70687 12.0596 8.26328V14.6875H9.25C6.66531 14.6875 4.5625 16.7903 4.5625 19.375V35.3125C4.5625 37.8972 6.66531 40 9.25 40H31.75C34.3347 40 36.4375 37.8972 36.4375 35.3125V19.375C36.4375 16.7903 34.3347 14.6875 31.75 14.6875ZM33.3125 35.3125C33.3125 36.1741 32.6116 36.875 31.75 36.875H9.25C8.38844 36.875 7.6875 36.1741 7.6875 35.3125V19.375C7.6875 18.5134 8.38844 17.8125 9.25 17.8125H31.75C32.6116 17.8125 33.3125 18.5134 33.3125 19.375V35.3125Z" fill="#7984C0"/>
<path d="M20.5 22.3438C18.9035 22.3438 17.6094 23.6379 17.6094 25.2344C17.6094 26.2538 18.1375 27.1492 18.9346 27.6639V31.0938C18.9346 31.9566 19.6341 32.6562 20.4971 32.6562C21.36 32.6562 22.0596 31.9566 22.0596 31.0938V27.6676C22.8599 27.1535 23.3906 26.2562 23.3906 25.2344C23.3906 23.6379 22.0965 22.3438 20.5 22.3438Z" fill="#7984C0"/>
</g>
<defs>
<clipPath id="clip0_1620_3767">
<rect width="40" height="40" fill="white" transform="translate(0.5)"/>
</clipPath>
</defs>
</svg>
