<svg width="41" height="40" viewBox="0 0 41 40" fill="none" xmlns="http://www.w3.org/2000/svg">
<g clip-path="url(#clip0_1620_3780)">
<path d="M38.9375 10.7812C39.8005 10.7812 40.5 10.0817 40.5 9.21875V6.25C40.5 2.80375 37.6962 0 34.25 0H6.75C3.30375 0 0.5 2.80375 0.5 6.25V33.75C0.5 37.1962 3.30375 40 6.75 40H34.25C36.9445 40 39.3276 38.2835 40.1798 35.7288C40.4529 34.9102 40.0106 34.0252 39.192 33.7522C38.3734 33.4789 37.4884 33.9214 37.2154 34.7399C36.7894 36.017 35.5977 36.875 34.25 36.875H6.75C5.02688 36.875 3.625 35.4731 3.625 33.75V15.3572C4.11391 15.5305 4.63992 15.625 5.1875 15.625H34.25C35.9731 15.625 37.375 17.0269 37.375 18.75V21.6406H32.1406C25.9205 21.8988 25.9253 30.7597 32.1406 31.0156H38.9375C39.8005 31.0156 40.5 30.316 40.5 29.4531V18.75C40.5 15.3038 37.6962 12.5 34.25 12.5H5.1875C3.11414 12.4139 3.11578 9.46039 5.1875 9.375H32.6875C34.7606 9.2925 34.7591 6.3318 32.6875 6.25H5.1875C4.63992 6.25 4.11391 6.34438 3.625 6.51773V6.25C3.625 4.52688 5.02688 3.125 6.75 3.125H34.25C35.9731 3.125 37.375 4.52688 37.375 6.25V9.21875C37.375 10.0817 38.0745 10.7812 38.9375 10.7812V10.7812ZM37.375 27.8906H32.1406C30.0673 27.8045 30.0688 24.8509 32.1406 24.7656H37.375V27.8906Z" fill="#7984C0"/>
</g>
<defs>
<clipPath id="clip0_1620_3780">
<rect width="40" height="40" fill="white" transform="translate(0.5)"/>
</clipPath>
</defs>
</svg>
